<?xml version="1.0" encoding="UTF-8"?>
<svg id="Camada_1" data-name="Camada 1" xmlns="http://www.w3.org/2000/svg" viewBox="0 0 336.4 378.96">
  <defs>
    <style>
      .cls-1 {
        fill: #188acb;
      }
      .cls-2 {
        fill: #f1f1f1;
      }
      .cls-2, .cls-3, .cls-4, .cls-5, .cls-6 {
        fill-rule: evenodd;
      }
      .cls-3 {
        fill: #c50f7f;
      }
      .cls-7 {
        fill: #ffe34b;
      }
      .cls-4 {
        fill: #a5529b;
      }
      .cls-5 {
        fill: #ffd803;
      }
      .cls-8 {
        fill: #e50c7e;
      }
      .cls-6 {
        fill: #1b9dd9;
      }
    </style>
  </defs>
  <path class="cls-2" d="M209.26,103.35h-6.02v12.05h12.05v-12.05h-6.03ZM213.16,113.26h-7.79v-7.79h7.79v7.79Z"/>
  <g>
    <path class="cls-6" d="M281.11,347.14c-2.76,1.28-18.64,12.49-49.52-.66-30.84-13.15-30.02-33.07-38.35-28.74-8.33,4.29-3.63,13.48.7,20.08,4.29,6.64,17.57,14.06,1.32,10.72-16.29-3.38-30.39-2.47-52.74-31.09-22.35-28.58-17.69-49.56-25.19-48.9-7.46.66,1.36,17.52-5.81,18.72-4.78.82-9.32-16.58-13.73-35.05-11.26-47.38,22.47-63.25,14.14-72-8.37-8.74-16.45,15.46-21.15,13.73-4.7-1.69-4.66-25.65,18.89-51.38,23.55-25.77,48.66-33.32,78.84-27.42s60.24,43.42,73.07,35.26c12.82-8.16,11.42-38.51-12.16-56-23.59-17.48-163.58-24.7-178.09,45.28-14.51,70.02-12.99,136.73,21.77,173.43,34.76,36.7,95.17,57.03,132.41,55.63,37.19-1.4,55.63-21.61,55.63-21.61h-.03Z"/>
    <path class="cls-5" d="M268.57,77.18c5.15,5.11-37.4-24.41-34.76-33.69s86.1,30.1,81.77,16.41c-4.33-13.65-44.16-31.5-39.05-32.82,5.15-1.28,40.7,16.99,29.98.33-10.76-16.62-68.12-26.72-124.16-16.29-56,10.47-75.62,30.23-72.24,18.64,3.38-11.55,31.38-25.57,18.72-29.57-12.62-4.04-66.97,57.11-87.38,105.11-20.37,47.96-14.27,84.33-20.29,78.35-5.98-5.98,3.09-38.39-10.56-32.12-28.25,17.11,2.02,132.49,66.47,184.69,6.76,5.48-14.47-2.93-16.25,4.78-1.81,7.67,18.43,13.61,79.25,31.38,60.82,17.77,113.89-6.1,113.89-6.1,0,0-85.64,2.19-129.4-23.79-43.71-25.94-63.05-63.42-72.33-134.1-9.24-70.72,44.08-134.51,97.97-142.38,53.89-7.88,118.34,11.17,118.34,11.17h.03Z"/>
    <path class="cls-4" d="M281.11,347.14c-81.03,32.91-179.29-8.33-204.61-100.08-23.46-85.11,36.86-211.54,196.03-114.72,26.56,16.21,34.88,8.66,25.85-10.76-9.07-19.46,32.53,12.74,36.78-5.28,4.21-17.98-.12-30.8-48.12-59.71C137.36-33.62.55,102.04,36.96,257.62c24.45,104.49,175.54,158.01,244.15,89.52h0Z"/>
    <path class="cls-3" d="M281.11,347.14c-61.56,9.53-62.39-5.77-67.42-3.71s-6.6,7.5-1.03,12c5.57,4.45-29.98-1.32-42.35-6.43-12.37-5.15-32.41-16.87-40.16-32.45-7.75-15.63-2.19-23.34-11.83-20.74-9.61,2.6,4.16,14.6-7.5,13.65-11.71-.95-21.28-13.9-28.95-43.05s15.67-52.66,6.02-60.78c-9.65-8.08-14.06,27.46-19.46,11.17-5.36-16.25-.99-47.26,15.42-67.01,16.41-19.71,37.94-12.95,36.62-24.16s-8.66-3.38-11.88-2.97c-3.22.41,9.07-13.48,28.82-18.6,19.75-5.11,28.45-1.57,52.41,7.34,24,8.91,39.42-3.96,20.95-16.12-18.47-12.21-88.9-27.55-119.62-2.19-30.72,25.32-39.92,60.86-39.59,107.91.29,47.09,27.83,102.8,54.88,124.45,27.05,21.69,60.82,37.36,96.2,41.85,35.34,4.49,78.47-20.16,78.47-20.16h0Z"/>
    <path class="cls-5" d="M207.46,377.82s-32.72-.69-63.3-20.04c-15.98-10.12-11.13-21.77-19.42-23.26-8.29-1.53-8.21,8.37-4.45,15.92,3.79,7.59-33.07-7.26-46.64-34.8-13.57-27.55,3.34-33.24-6.76-42.68-10.1-9.48-2.47,31.13-11.92,16-9.48-15.17-17.94-47.46-16.08-81.27,1.81-33.77,35.21-42.14,23.96-57.61-11.22-15.46-18.31,25.32-24.95,21.9-6.64-3.38,3.92-44.49,31.67-70.26,27.71-25.77,56.45-12.87,52.49-33.98-3.96-21.11-23.05-22.89-40.53-6.56s-27.83,33.73-37.15,59.42c-9.32,25.73-16.12,46.72-16.87,80.94-.74,34.22,1.03,51.75,12.21,75.91,11.22,24.12,26.93,46.35,40.62,57.19,49.65,39.3,91.54,45.63,127.13,43.17h0Z"/>
  </g>
  <path class="cls-8" d="M160.26,82.03c12.23,1.74,23.92,6.1,35.4,10.68,3.48,1.39,7.15,2.83,10.86,2.29,3.7-.54,7.28-3.89,6.62-7.58-.64-3.58-4.81-5.93-4.92-9.56-.08-2.81,2.5-5.14,5.26-5.7s5.59.23,8.25,1.13c26.15,8.9,48.06,29.79,75.48,33.13,3.2.39,6.65.47,9.38-1.23,3.79-2.36,4.95-7.6,3.76-11.9s-4.23-7.83-7.39-10.98c-22.36-22.29-55.66-33.05-86.83-28.05-2.11.34-5.11.13-5.33-2s2.66-2.95,4.19-4.45c2.37-2.33.99-6.74-1.87-8.43-2.86-1.69-6.46-1.39-9.72-.72-7.75,1.59-15.13,4.97-21.39,9.8-2.85,2.2-5.53,4.73-8.85,6.14s-7.55,1.43-10.13-1.09c-1.07-1.05-1.83-2.5-3.2-3.11-2.28-1.02-4.77.77-6.63,2.45-7.58,6.86-15.17,13.71-22.75,20.57-2.54,2.3-5.12,4.85-6.59,7.99-.48,1.02-1.42,2.96-.67,4.04.67.97,2.21.78,3.18.52,3.49-.94,6.72-2.55,10.29-3.33,3.65-.8,7.39-1.22,11.12-1.32,4.17-.12,8.34.15,12.47.73v-.02Z"/>
  <path class="cls-8" d="M62.65,224.12c.29,3.24,1.68,7.38,4.93,7.33,1.36-.02,2.59-.85,3.94-1.02,3.03-.37,5.51,2.87,5.51,5.92s-1.73,5.8-3.44,8.32c-3.57,5.24-7.39,10.31-11.44,15.19-1.02,1.22-2.23,2.53-3.82,2.62-2.74.15-4.14-3.19-4.67-5.88-5.28-27.02-2.65-55.54,7.47-81.14,1.13-2.85,4.03-8.38,7.98-6.02,2.65,1.58-.8,6.12-1.5,8.02-3.41,9.25-4.75,19.77-5.26,29.56-.3,5.7-.19,11.41.31,17.09h-.01Z"/>
  <path class="cls-8" d="M108.17,326.94c1.03,2.56.46,6.03-2.02,7.25-1.61.79-3.56.43-5.18-.31-3.7-1.69-6.26-5.14-8.4-8.59-2.61-4.22-4.83-8.68-6.64-13.3-.91-2.33-1.71-4.7-2.4-7.1-.22-.77-1-2.57-.02-3.16,1.73-1.03,5.53,2.79,6.56,3.76,3.03,2.83,5.11,6.42,7.76,9.58,1.78,2.12,3.69,4.12,5.69,6.04,1.8,1.72,3.7,3.49,4.65,5.84h0Z"/>
  <path class="cls-8" d="M229.56,362.63c-9.16.06-18.26-1.32-27.37-2.23-3.26-.33-7.43-.07-8.6,2.99-.77,2.01.33,4.37,2.06,5.67s3.93,1.76,6.06,2.08c9.35,1.42,18.99.79,28.12-1.66,4.57-1.23,9.01-2.91,13.23-5.04,1.84-.92,4.04-1.83,5.47-3.36.18-.2,1.11-1.12.83-1.45-.27-.32-2.26.59-2.63.7-5.56,1.64-11.38,2.27-17.16,2.3h0Z"/>
  <path class="cls-8" d="M67.09,128.59c1.33,1.05,3.36.75,4.73-.26,1.37-1.01,2.22-2.55,3-4.06,2.1-4.05,4.03-8.23,6.78-11.86,2.95-3.89,6.56-6.45,11.23-7.8,2.18-.63,2.73-2.63.09-3.04-2.46-.38-5.05.34-7.43.86-2.87.63-5.87,1.28-8.28,3.06-2.83,2.09-4.95,5.35-6.79,8.29-1.61,2.56-2.94,5.31-3.91,8.18-.68,2.03-1.42,5.05.57,6.63h.01Z"/>
  <path class="cls-7" d="M62.6,83.27c-1.25,2.68-2.22,6.33.08,8.19,1.38,1.12,3.46.99,5.05.19,1.59-.8,2.82-2.16,4.07-3.43,7.58-7.76,17.12-13.59,27.48-16.8,1.59-.49,3.27-.96,4.5-2.08,1.24-1.12,1.86-3.12.9-4.48-2.26-3.18-8.3,1.33-10.96-1.52-1.59-1.7-.43-4.49,1.09-6.25,1.69-1.96,3.77-3.6,5.22-5.76,1.2-1.78,1.95-4.16,1.28-6.28-.66-2.08-2.68-3.4-4.84-3.32-1.58.06-3.34.33-4.72,1.15-1.2.71-2.09,1.83-3,2.86-3.16,3.58-6.48,6.99-9.47,10.73-3.11,3.88-6,7.94-8.66,12.14-2.65,4.19-5.06,8.52-7.22,12.97-.27.56-.54,1.13-.81,1.69h.01Z"/>
  <path class="cls-7" d="M27.82,207.25c-.09-1.14-.2-2.32-.76-3.31-.97-1.7-3.34-2.44-5.1-1.59-1.77.85-2.67,3.16-1.94,4.98-5.26-3.87-8.69-9.82-10.66-16.04s-2.61-12.78-3.24-19.27c-1.93.2-3.39,1.99-3.83,3.88-.44,1.89-.09,3.86.26,5.77,1.85,10.02,3.78,20.24,8.69,29.16,2.53,4.6,5.81,8.78,7.98,13.56,3.62,8,3.87,17.09,6.45,25.48,1.66,5.4,4.3,10.51,7.74,14.99.95,1.23,2.25,2.53,3.78,2.3,1.31-.2,2.21-1.54,2.35-2.85s-.28-2.62-.71-3.88c-.88-3.53-2.36-7.01-3.52-10.46-1.19-3.53-2.38-7.06-3.57-10.6-.59-1.77-1.19-3.53-1.78-5.3-.43-1.29-.45-2.18-.34-3.49.13-1.7-.19-3.48-.33-5.18-.15-1.85-.3-3.71-.45-5.56-.34-4.2-.68-8.4-1.02-12.59h0Z"/>
  <path class="cls-7" d="M101.59,356.49c1.13.35,2.47.67,3.39-.06.85-.67.93-2,.45-2.97s-1.38-1.66-2.27-2.27c-3.65-2.49-7.74-4.25-11.97-5.51-2.17-.65-4.39-1.16-6.62-1.58-1.8-.34-3.59-.76-5.43-.49-1.47.21-2.96.7-4.25,1.44-.62.36-1.95,1.13-1.73,2.04.11.45.59.66.97.82,1.1.45,2.31.73,3.44,1.08,2.46.77,4.92,1.54,7.37,2.3,4.94,1.54,9.88,3.09,14.82,4.63l1.83.57h0Z"/>
  <path class="cls-1" d="M246.32,123.15c4.3,2.19,8.26,5.27,10.74,9.4.92,1.54,1.64,3.27,1.65,5.07,0,1.8-.83,3.67-2.39,4.55-2.07,1.17-4.68.34-6.79-.74-9.43-4.81-16.43-14.29-26.72-16.77-.93-.22-1.9-.4-2.67-.95-.77-.56-1.27-1.64-.83-2.48.67-1.28,2.57-.92,3.91-.37,5.07,2.08,10.14,4.15,15.21,6.23.45-1.61-1.1-3.09-2.64-3.72-1.47-.59-3.23-.84-4.4-2-.69-.68-1.37-2.52-.11-3,1.06-.4,2.54.18,3.55.48,1.76.52,3.52,1.07,5.26,1.68,2.13.75,4.23,1.59,6.25,2.62h-.02Z"/>
  <path class="cls-1" d="M94.17,259.22c1.66,5.63,4.15,10.97,6.53,16.33.34.77.69,1.58.67,2.42-.02.85-.5,1.74-1.32,1.96-.99.26-1.92-.53-2.6-1.29-2.39-2.62-4.36-5.61-5.86-8.81-1.52-3.23-2.57-6.69-3.12-10.22s-.59-7.14-.09-10.68c.13-.88.28-1.76.48-2.64.18-.79.35-1.94,1-2.5.91-.79,2.4-.04,2.5,1.09.09,1.01-.09,2.1-.06,3.12.03,1.08.1,2.16.23,3.24.24,2.16.67,4.3,1.22,6.4.14.52.28,1.05.44,1.57h-.02Z"/>
</svg>
